<svg width="1280" height="480" viewBox="0 0 1280 480" fill="none" xmlns="http://www.w3.org/2000/svg">
  <defs>
    <linearGradient id="bg" x1="120" y1="40" x2="1160" y2="440" gradientUnits="userSpaceOnUse">
      <stop stop-color="#07131F"/>
      <stop offset="0.55" stop-color="#0A2332"/>
      <stop offset="1" stop-color="#081018"/>
    </linearGradient>
    <linearGradient id="accent" x1="312" y1="78" x2="502" y2="320" gradientUnits="userSpaceOnUse">
      <stop stop-color="#5CE1E6"/>
      <stop offset="1" stop-color="#1EA4B8"/>
    </linearGradient>
    <linearGradient id="line" x1="0" y1="0" x2="1" y2="1">
      <stop stop-color="#63F4FF"/>
      <stop offset="1" stop-color="#5BFF9B"/>
    </linearGradient>
    <radialGradient id="scopeGlow" cx="0" cy="0" r="1" gradientUnits="userSpaceOnUse" gradientTransform="translate(258 236) rotate(90) scale(166)">
      <stop stop-color="#173A4A" stop-opacity="0.95"/>
      <stop offset="0.6" stop-color="#0C1E2B" stop-opacity="0.8"/>
      <stop offset="1" stop-color="#081119" stop-opacity="0"/>
    </radialGradient>
    <linearGradient id="silhouette" x1="258" y1="164" x2="258" y2="340" gradientUnits="userSpaceOnUse">
      <stop stop-color="#122331"/>
      <stop offset="1" stop-color="#09131B"/>
    </linearGradient>
    <filter id="softGlow" x="-50%" y="-50%" width="200%" height="200%">
      <feGaussianBlur stdDeviation="10" result="blur"/>
      <feMerge>
        <feMergeNode in="blur"/>
        <feMergeNode in="SourceGraphic"/>
      </feMerge>
    </filter>
  </defs>

  <rect width="1280" height="480" rx="28" fill="url(#bg)"/>

  <g opacity="0.18">
    <path d="M0 80H1280" stroke="#8CE5FF"/>
    <path d="M0 160H1280" stroke="#8CE5FF"/>
    <path d="M0 240H1280" stroke="#8CE5FF"/>
    <path d="M0 320H1280" stroke="#8CE5FF"/>
    <path d="M0 400H1280" stroke="#8CE5FF"/>
    <path d="M160 0V480" stroke="#8CE5FF"/>
    <path d="M320 0V480" stroke="#8CE5FF"/>
    <path d="M480 0V480" stroke="#8CE5FF"/>
    <path d="M640 0V480" stroke="#8CE5FF"/>
    <path d="M800 0V480" stroke="#8CE5FF"/>
    <path d="M960 0V480" stroke="#8CE5FF"/>
    <path d="M1120 0V480" stroke="#8CE5FF"/>
  </g>

  <g>
    <circle cx="258" cy="236" r="166" fill="url(#scopeGlow)"/>
    <rect x="100" y="124" width="316" height="224" rx="28" fill="#08131B" fill-opacity="0.2" stroke="#17394D" stroke-width="2"/>
    <circle cx="258" cy="236" r="112" fill="#07131B" fill-opacity="0.6" stroke="#234E66" stroke-width="2"/>
    <circle cx="258" cy="236" r="88" fill="none" stroke="#73F7FF" stroke-opacity="0.16" stroke-width="1.5"/>
    <path d="M126 150H152" stroke="#17384D" stroke-width="6" stroke-linecap="round"/>
    <path d="M126 168H142" stroke="#17384D" stroke-width="6" stroke-linecap="round"/>
    <path d="M364 150H390" stroke="#17384D" stroke-width="6" stroke-linecap="round"/>
    <path d="M374 168H390" stroke="#17384D" stroke-width="6" stroke-linecap="round"/>
    <path d="M126 322H152" stroke="#17384D" stroke-width="6" stroke-linecap="round"/>
    <path d="M126 304H142" stroke="#17384D" stroke-width="6" stroke-linecap="round"/>
    <path d="M364 322H390" stroke="#17384D" stroke-width="6" stroke-linecap="round"/>
    <path d="M374 304H390" stroke="#17384D" stroke-width="6" stroke-linecap="round"/>
    <path d="M172 196H196" stroke="#7CF7C9" stroke-opacity="0.45" stroke-width="3" stroke-linecap="round"/>
    <path d="M320 196H344" stroke="#7CF7C9" stroke-opacity="0.45" stroke-width="3" stroke-linecap="round"/>
    <path d="M172 236H188" stroke="#73F7FF" stroke-opacity="0.4" stroke-width="3" stroke-linecap="round"/>
    <path d="M328 236H344" stroke="#73F7FF" stroke-opacity="0.4" stroke-width="3" stroke-linecap="round"/>
    <g transform="translate(0 9)">
      <path d="M206 326C211 298 225 277 244 263C248 260 253 258 258 258C263 258 268 260 272 263C291 277 305 298 310 326Z" fill="url(#silhouette)" stroke="#1B4155" stroke-width="2"/>
      <path d="M240 240C246 237 252 236 258 236C264 236 270 237 276 240V266H240V240Z" fill="url(#silhouette)" stroke="#1B4155" stroke-width="2"/>
      <rect x="249" y="232" width="18" height="34" rx="9" fill="#10212E"/>
      <circle cx="258" cy="193" r="44" fill="url(#silhouette)" stroke="#1B4155" stroke-width="2"/>
      <path d="M230 317C234 301 242 289 254 282" stroke="#7CF7C9" stroke-opacity="0.3" stroke-width="2.5" stroke-linecap="round"/>
      <path d="M286 317C282 301 274 289 262 282" stroke="#7CF7C9" stroke-opacity="0.3" stroke-width="2.5" stroke-linecap="round"/>
      <g filter="url(#softGlow)">
        <circle cx="258" cy="193" r="24" fill="none" stroke="#73F7FF" stroke-width="2.3"/>
        <circle cx="258" cy="193" r="12" fill="none" stroke="#7CF7C9" stroke-width="1.8"/>
        <circle cx="258" cy="193" r="4.5" fill="#0F2636" stroke="#F4FBFF" stroke-width="1.6"/>
        <path d="M230 193H243" stroke="#73F7FF" stroke-width="2.8" stroke-linecap="round"/>
        <path d="M273 193H286" stroke="#73F7FF" stroke-width="2.8" stroke-linecap="round"/>
        <path d="M258 165V178" stroke="#73F7FF" stroke-width="2.8" stroke-linecap="round"/>
        <path d="M258 208V221" stroke="#73F7FF" stroke-width="2.8" stroke-linecap="round"/>
        <path d="M239 174L244 179" stroke="#7CF7C9" stroke-width="2.1" stroke-linecap="round" opacity="0.9"/>
        <path d="M277 174L272 179" stroke="#7CF7C9" stroke-width="2.1" stroke-linecap="round" opacity="0.9"/>
        <path d="M239 212L244 207" stroke="#7CF7C9" stroke-width="2.1" stroke-linecap="round" opacity="0.9"/>
        <path d="M277 212L272 207" stroke="#7CF7C9" stroke-width="2.1" stroke-linecap="round" opacity="0.9"/>
      </g>
    </g>
    <rect x="132" y="318" width="58" height="8" rx="4" fill="#173042" opacity="0.8"/>
    <rect x="132" y="332" width="36" height="6" rx="3" fill="#173042" opacity="0.55"/>
    <rect x="330" y="318" width="54" height="8" rx="4" fill="#173042" opacity="0.8"/>
    <rect x="352" y="332" width="32" height="6" rx="3" fill="#173042" opacity="0.55"/>
  </g>

  <g opacity="0.75">
    <rect x="508" y="110" width="680" height="260" rx="22" fill="#0B1621" fill-opacity="0.32" stroke="#163246"/>
    <text x="564" y="205" fill="#F4FBFF" font-size="76" font-weight="800" font-family="Segoe UI, Arial, sans-serif" letter-spacing="3">S.A.F.E.R.</text>
    <text x="566" y="252" fill="#7BEFFF" font-size="26" font-weight="600" font-family="Segoe UI, Arial, sans-serif">Sistema de Análise Facial para Entidades de Risco</text>
    <text x="566" y="302" fill="#C8D9E6" font-size="24" font-weight="400" font-family="Segoe UI, Arial, sans-serif">Reconhecimento facial para apoio à identificação de criminosos</text>
  </g>

  <g opacity="0.42">
    <rect x="920" y="74" width="232" height="20" rx="10" fill="#173042"/>
    <rect x="958" y="389" width="164" height="16" rx="8" fill="#173042"/>
    <circle cx="1130" cy="162" r="54" fill="#0F2433"/>
    <circle cx="1130" cy="162" r="34" fill="none" stroke="#70F1FF" stroke-width="2"/>
    <path d="M1130 116V208" stroke="#70F1FF" stroke-opacity="0.8"/>
    <path d="M1084 162H1176" stroke="#70F1FF" stroke-opacity="0.8"/>
  </g>
</svg>
