<svg width="1280" height="480" viewBox="0 0 1280 480" fill="none" xmlns="http://www.w3.org/2000/svg">
  <defs>
    <linearGradient id="bg" x1="120" y1="40" x2="1160" y2="440" gradientUnits="userSpaceOnUse">
      <stop stop-color="#07131F"/>
      <stop offset="0.55" stop-color="#0A2332"/>
      <stop offset="1" stop-color="#081018"/>
    </linearGradient>
    <linearGradient id="accent" x1="312" y1="78" x2="502" y2="320" gradientUnits="userSpaceOnUse">
      <stop stop-color="#5CE1E6"/>
      <stop offset="1" stop-color="#1EA4B8"/>
    </linearGradient>
    <linearGradient id="line" x1="0" y1="0" x2="1" y2="1">
      <stop stop-color="#63F4FF"/>
      <stop offset="1" stop-color="#5BFF9B"/>
    </linearGradient>
    <filter id="softGlow" x="-50%" y="-50%" width="200%" height="200%">
      <feGaussianBlur stdDeviation="10" result="blur"/>
      <feMerge>
        <feMergeNode in="blur"/>
        <feMergeNode in="SourceGraphic"/>
      </feMerge>
    </filter>
  </defs>

  <rect width="1280" height="480" rx="28" fill="url(#bg)"/>

  <g opacity="0.18">
    <path d="M0 80H1280" stroke="#8CE5FF"/>
    <path d="M0 160H1280" stroke="#8CE5FF"/>
    <path d="M0 240H1280" stroke="#8CE5FF"/>
    <path d="M0 320H1280" stroke="#8CE5FF"/>
    <path d="M0 400H1280" stroke="#8CE5FF"/>
    <path d="M160 0V480" stroke="#8CE5FF"/>
    <path d="M320 0V480" stroke="#8CE5FF"/>
    <path d="M480 0V480" stroke="#8CE5FF"/>
    <path d="M640 0V480" stroke="#8CE5FF"/>
    <path d="M800 0V480" stroke="#8CE5FF"/>
    <path d="M960 0V480" stroke="#8CE5FF"/>
    <path d="M1120 0V480" stroke="#8CE5FF"/>
  </g>

  <circle cx="260" cy="236" r="142" fill="#0B2030" opacity="0.72"/>
  <circle cx="260" cy="236" r="118" fill="none" stroke="url(#accent)" stroke-width="2" opacity="0.55"/>
  <circle cx="260" cy="236" r="98" fill="none" stroke="#73F7FF" stroke-width="1.5" opacity="0.25"/>

  <g filter="url(#softGlow)">
    <path d="M253 134C220 145 188 177 181 221C176 254 184 287 204 314C220 337 244 353 272 358" stroke="url(#line)" stroke-width="4" stroke-linecap="round"/>
    <path d="M275 154C298 160 316 176 326 199C332 214 334 228 330 244C326 260 316 272 302 283" stroke="url(#line)" stroke-width="4" stroke-linecap="round"/>
    <path d="M234 202C245 195 257 191 270 191C283 191 295 195 306 202" stroke="#6CE7FF" stroke-width="4" stroke-linecap="round"/>
    <path d="M229 237C239 246 254 252 270 252C286 252 301 246 311 237" stroke="#6CE7FF" stroke-width="4" stroke-linecap="round"/>
    <path d="M250 285C261 292 278 292 289 285" stroke="#7CF7C9" stroke-width="4" stroke-linecap="round"/>
    <circle cx="224" cy="203" r="6" fill="#76E8FF"/>
    <circle cx="316" cy="203" r="6" fill="#76E8FF"/>
    <circle cx="270" cy="191" r="6" fill="#76E8FF"/>
    <circle cx="270" cy="252" r="6" fill="#76E8FF"/>
    <circle cx="250" cy="285" r="6" fill="#8CFFB5"/>
    <circle cx="289" cy="285" r="6" fill="#8CFFB5"/>
  </g>

  <rect x="118" y="138" width="284" height="196" rx="22" stroke="#78EEFF" stroke-width="2" opacity="0.55"/>
  <path d="M118 182H88V152" stroke="#7DF3FF" stroke-width="3" stroke-linecap="round"/>
  <path d="M402 182H432V152" stroke="#7DF3FF" stroke-width="3" stroke-linecap="round"/>
  <path d="M118 290H88V320" stroke="#7DF3FF" stroke-width="3" stroke-linecap="round"/>
  <path d="M402 290H432V320" stroke="#7DF3FF" stroke-width="3" stroke-linecap="round"/>

  <g opacity="0.75">
    <rect x="508" y="110" width="680" height="260" rx="22" fill="#0B1621" fill-opacity="0.32" stroke="#163246"/>
    <text x="564" y="205" fill="#F4FBFF" font-size="76" font-weight="800" font-family="Segoe UI, Arial, sans-serif" letter-spacing="3">S.A.F.E.R.</text>
    <text x="566" y="252" fill="#7BEFFF" font-size="26" font-weight="600" font-family="Segoe UI, Arial, sans-serif">Sistema de Análise Facial para Entidades de Risco</text>
    <text x="566" y="302" fill="#C8D9E6" font-size="24" font-weight="400" font-family="Segoe UI, Arial, sans-serif">Reconhecimento facial para apoio à identificação de criminosos</text>
  </g>

  <g opacity="0.42">
    <rect x="920" y="74" width="232" height="20" rx="10" fill="#173042"/>
    <rect x="958" y="389" width="164" height="16" rx="8" fill="#173042"/>
    <circle cx="1130" cy="162" r="54" fill="#0F2433"/>
    <circle cx="1130" cy="162" r="34" fill="none" stroke="#70F1FF" stroke-width="2"/>
    <path d="M1130 116V208" stroke="#70F1FF" stroke-opacity="0.8"/>
    <path d="M1084 162H1176" stroke="#70F1FF" stroke-opacity="0.8"/>
  </g>
</svg>
